<?xml version="1.0" standalone="no"?>
<!DOCTYPE svg PUBLIC "-//W3C//DTD SVG 20010904//EN"
 "http://www.w3.org/TR/2001/REC-SVG-20010904/DTD/svg10.dtd">
<svg version="1.0" xmlns="http://www.w3.org/2000/svg"
 width="500.000000pt" height="500.000000pt" viewBox="0 0 500.000000 500.000000"
 preserveAspectRatio="xMidYMid meet">

<g transform="translate(0.000000,500.000000) scale(0.100000,-0.100000)"
fill="#000000" stroke="none">
<path d="M2951 4044 c-39 -33 -41 -71 -4 -114 23 -28 31 -31 61 -27 64 11 91
56 68 112 -25 59 -75 71 -125 29z m98 -20 c28 -36 26 -58 -5 -83 -35 -27 -69
-27 -88 1 -51 72 39 150 93 82z"/>
<path d="M3055 3896 c-39 -17 -74 -56 -84 -92 -18 -65 46 -175 109 -187 44 -9
101 12 142 53 32 32 38 44 38 80 0 88 -60 160 -133 160 -23 -1 -55 -7 -72 -14z
m126 -19 c32 -24 59 -81 59 -125 0 -36 -6 -49 -31 -73 -41 -38 -101 -55 -140
-38 -58 23 -97 109 -78 166 20 62 142 107 190 70z"/>
<path d="M3205 3622 c-84 -40 -125 -103 -125 -189 1 -186 218 -275 349 -144
93 93 70 256 -46 324 -48 28 -129 32 -178 9z m161 -22 c56 -28 97 -89 102
-155 4 -66 -27 -129 -86 -170 -117 -81 -282 8 -284 153 -1 143 141 233 268
172z"/>
<path d="M1815 3513 c-179 -40 -359 -151 -460 -285 -58 -76 -116 -197 -141
-293 -25 -96 -25 -265 0 -365 20 -81 269 -585 298 -603 11 -8 46 6 139 52 153
77 209 129 234 216 26 87 16 128 -75 315 -86 178 -92 202 -64 283 17 51 75
110 130 133 80 33 187 10 245 -53 15 -15 110 -194 213 -396 195 -387 202 -399
275 -486 112 -134 314 -235 511 -256 140 -15 326 33 465 119 89 56 210 182
258 267 104 186 128 415 65 609 -27 85 -265 560 -284 567 -21 8 -259 -116
-303 -157 -56 -54 -75 -102 -76 -190 0 -74 1 -77 78 -230 73 -145 79 -160 78
-217 0 -67 -22 -122 -63 -159 -90 -83 -230 -86 -315 -6 -20 18 -92 151 -208
383 -198 395 -235 458 -321 542 -152 149 -326 218 -546 216 -62 -1 -122 -3
-133 -6z m315 -29 c36 -9 111 -38 168 -66 109 -53 206 -136 269 -228 17 -25
115 -211 218 -415 103 -203 202 -385 219 -404 118 -128 356 -75 406 91 26 90
18 128 -71 310 -81 166 -82 168 -77 231 6 73 34 133 79 171 28 24 234 135 265
144 14 4 241 -435 277 -536 83 -227 43 -474 -110 -690 -142 -201 -444 -330
-683 -293 -96 15 -225 60 -296 102 -81 49 -177 140 -227 217 -24 37 -124 226
-222 421 -98 194 -190 367 -204 384 -37 44 -115 77 -182 77 -67 0 -144 -35
-188 -86 -38 -42 -65 -133 -57 -185 3 -21 40 -107 81 -191 85 -174 96 -217 71
-302 -24 -80 -68 -121 -219 -197 -69 -35 -128 -61 -130 -59 -19 20 -259 520
-276 575 -86 275 24 609 258 789 186 143 405 192 631 140z"/>
<path d="M1810 2071 c-14 -4 -39 -15 -55 -24 -124 -64 -140 -239 -32 -334 80
-70 188 -68 267 3 131 119 62 334 -115 357 -22 3 -51 2 -65 -2z m92 -21 c85
-24 143 -108 136 -196 -12 -144 -168 -220 -288 -140 -130 86 -96 290 56 336
40 11 53 11 96 0z"/>
<path d="M1989 1676 c-127 -46 -153 -154 -59 -248 31 -32 44 -38 79 -38 84 0
161 65 161 135 0 17 -10 51 -22 75 -38 73 -94 100 -159 76z m85 -21 c40 -19
76 -80 76 -128 0 -93 -141 -157 -206 -92 -80 80 -64 176 36 219 45 19 55 19
94 1z"/>
<path d="M2105 1391 c-11 -5 -28 -18 -39 -29 -24 -27 -15 -80 19 -112 31 -29
85 -21 115 17 28 36 25 69 -9 104 -30 30 -50 34 -86 20z m61 -19 c15 -10 34
-47 34 -66 0 -22 -40 -56 -66 -56 -29 0 -64 37 -64 66 0 43 62 79 96 56z"/>
</g>
</svg>
